<svg data-v-2cb57da0="" version="1.0" xmlns="http://www.w3.org/2000/svg" xmlns:xlink="http://www.w3.org/1999/xlink" width="100%" height="100%" viewBox="0 0 340.000000 250.000000" preserveAspectRatio="xMidYMid meet" color-interpolation-filters="sRGB" style="margin: auto;"><rect data-v-2cb57da0="" x="0" y="0" width="100%" height="100%" fill="#feffff" fill-opacity="1" class="background"></rect> <!----> <g data-v-2cb57da0="" fill="#ff2351" class="iconlinesvg-g iconlinesvg" transform="translate(80.6627426147461,91.03096389770508)"><g class="tp-name"><g transform="translate(0, 1.0307371438690964)"><g><g class="imagesvg"><g><rect fill="#ff2351" fill-opacity="0" stroke-width="2" x="0" y="0" width="81.63239015572972" height="65.87400958322955" class="image-rect"></rect> <svg x="0" y="0" width="81.63239015572972" height="65.87400958322955" filtersec="colorsb3230266779" class="image-svg-svg primary" style="overflow: visible;"><svg xmlns="http://www.w3.org/2000/svg" viewBox="0 0 46 37.119998931884766"><g><g><path d="M7.29 37.12H17V26.84h6.6c7.21 0 12.07-2.95 14-8.2h-3.3v-2.48h6.48a18.33 18.33 0 0 0 .27-3.16c0-8.26-5.45-13-14.93-13H4.79v2.47h2.5v13.69H0v2.48h12.1v2.47H2.24v2.48h2.52v11.05h2.53zM19.5 18.59V7.73h3.62c3.92 0 6.19 2 6.19 5.61 0 2.66-1.16 4.43-3.21 5.25a8.18 8.18 0 0 1-3 .52h-3.6z" fill="#ff2351"></path><path fill="#ff2351" d="M2.29 34.64h2.48v2.47H2.29z"></path><path d="M14.45 37.12H22v-2.48h-2.5v-7.8h6.62c6 0 10.35-2 12.76-5.73H46v-2.47H34.3v-2.48h9a17.35 17.35 0 0 0 .28-3.16c0-8.26-5.46-13-14.94-13H9.81v18.64h2.29v2.47H7.29v16h7.16zm8.67-29.39h2.52c3.92 0 6.2 2 6.2 5.61 0 2.66-1.16 4.43-3.22 5.25a8.14 8.14 0 0 1-3 .52H22V7.73z" fill="#00d8eb"></path><path fill="#00d8eb" d="M24.51 32.17h2.48v2.47h-2.48z"></path><path d="M14.45 37.12H17V26.84h6.6c7.21 0 12.07-2.95 14-8.2h-3.3v-2.48h6.48a18.33 18.33 0 0 0 .27-3.16c0-8.26-5.45-13-14.93-13H9.81v18.64h2.29v2.47H7.29v16h7.16zM22 7.73h3.61c3.92 0 6.2 2 6.2 5.61 0 2.66-1.16 4.43-3.22 5.25a8.14 8.14 0 0 1-3 .52H19.5V7.73z" fill="#000b34"></path></g></g></svg></svg> <!----></g></g></g></g><g transform="translate(85, 0)"><g data-gra="path-name" fill="#ff2351" transform="scale(1)"><path d="M4.94-38.90L11.61-38.90L11.61 0L4.94 0L4.94-38.90ZM11.61-53.13L11.61-45.87L4.94-45.87L4.94-53.13L11.61-53.13Z" transform="translate(-4.935483870967741, 53.12903225806451)"></path></g></g><g transform="translate(95, 0)"><g data-gra="path-name" fill="#ff2351" transform="scale(1)"><path d="M4.94-53.13L11.61-53.13L11.61 0L4.94 0L4.94-53.13Z" transform="translate(-4.935483870967741, 53.12903225806451)"></path></g></g><g transform="translate(105, 0)"><g data-gra="path-name" fill="#ff2351" transform="scale(1)"><path d="M4.94-38.90L11.61-38.90L11.61 0L4.94 0L4.94-38.90ZM11.61-53.13L11.61-45.87L4.94-45.87L4.94-53.13L11.61-53.13Z" transform="translate(-4.935483870967741, 53.12903225806451)"></path></g></g><g transform="translate(115, 0)"><g data-gra="path-name" fill="#ff2351" transform="scale(1)"><path d="M10.45-17.42L10.45-17.42Q10.74-5.23 21.19-4.35L21.19-4.35Q31.35-4.65 31.65-19.45L31.65-19.45Q31.94-33.97 20.90-33.97L20.90-33.97Q10.45-33.97 10.45-17.42ZM10.74 14.81L4.35 14.81L4.35-38.90L10.45-38.90L10.45-33.39L10.74-33.39Q10.74-33.39 11.03-33.68L11.03-33.68Q15.10-40.06 22.06-40.06L22.06-40.06Q37.45-39.19 38.32-20.61L38.32-20.61Q37.45 0 21.19 0.58L21.19 0.58Q14.52 0.58 11.03-4.06L11.03-4.06L10.74-4.06L10.74 14.81Z" transform="translate(-4.35483870967742, 53.12903225806451)"></path></g></g><g transform="translate(152, 0)"><g data-gra="path-name" fill="#ff2351" transform="scale(1)"><path d="M4.94-38.90L11.61-38.90L11.61 0L4.94 0L4.94-38.90ZM11.61-53.13L11.61-45.87L4.94-45.87L4.94-53.13L11.61-53.13Z" transform="translate(-4.935483870967741, 53.12903225806451)"></path></g></g><g transform="translate(162, 0)"><g data-gra="path-name" fill="#ff2351" transform="scale(1)"><path d="M4.94-53.13L11.61-53.13L11.61 0L4.94 0L4.94-53.13Z" transform="translate(-4.935483870967741, 53.12903225806451)"></path></g></g><g transform="translate(172, 0)"><g data-gra="path-name" fill="#ff2351" transform="scale(1)"><path d="M4.94-38.90L11.61-38.90L11.61 0L4.94 0L4.94-38.90ZM11.61-53.13L11.61-45.87L4.94-45.87L4.94-53.13L11.61-53.13Z" transform="translate(-4.935483870967741, 53.12903225806451)"></path></g></g></g> <!----></g><defs v-gra="od"></defs></svg>