<?xml version="1.0" standalone="no"?><!DOCTYPE svg PUBLIC "-//W3C//DTD SVG 1.1//EN" "http://www.w3.org/Graphics/SVG/1.1/DTD/svg11.dtd"><svg class="icon" width="64px" height="64.00px" viewBox="0 0 1024 1024" version="1.1" xmlns="http://www.w3.org/2000/svg"><path fill="#ffffff" d="M861.2 59H164.8C75.6 59 3 131.6 3 220.9v416.9C3 727 75.6 799.6 164.8 799.6h201.5L527.2 965l162.2-165.5h171.8c89.2 0 161.8-72.6 161.8-161.8V220.9C1023 131.6 950.4 59 861.2 59z m132.4 578.7c0 73-59.4 132.4-132.4 132.4H677.1L527.4 922.9 378.8 770.1h-214c-73 0-132.4-59.4-132.4-132.4V220.9c0-73 59.4-132.4 132.4-132.4h696.3c73 0 132.4 59.4 132.4 132.4l0.1 416.8z"  /><path fill="#ffffff" d="M216.3 279.7h492.8v29.4H216.3v-29.4zM795.2 294.4c0 9.3 7.6 16.9 16.9 16.9 9.3 0 16.9-7.6 16.9-16.9 0-9.3-7.6-16.9-16.9-16.9-9.4 0-16.9 7.5-16.9 16.9zM216.3 425.6h492.8V455H216.3v-29.4z m595.8-2.2c-9.3 0-16.9 7.6-16.9 16.9s7.6 16.9 16.9 16.9c9.3 0 16.9-7.6 16.9-16.9s-7.5-16.9-16.9-16.9zM216.3 545.8h492.8v29.4H216.3v-29.4z m595.8-2.2c-9.3 0-16.9 7.6-16.9 16.9s7.6 16.9 16.9 16.9c9.3 0 16.9-7.6 16.9-16.9 0-9.4-7.5-16.9-16.9-16.9z"  /></svg>